<svg xmlns="http://www.w3.org/2000/svg" width="19.312" height="17.767" viewBox="0 0 19.312 17.767">
    <path fill="#2a2929" d="M17.78 1.739A5.116 5.116 0 0 0 13.917 0a4.757 4.757 0 0 0-3.035 1.083 6.324 6.324 0 0 0-1.226 1.325 6.331 6.331 0 0 0-1.227-1.325A4.756 4.756 0 0 0 5.395 0a5.116 5.116 0 0 0-3.863 1.739A6.366 6.366 0 0 0 0 6a7.572 7.572 0 0 0 1.915 4.865 41.445 41.445 0 0 0 4.795 4.656c.664.585 1.417 1.249 2.2 1.956a1.106 1.106 0 0 0 1.493 0c.782-.707 1.535-1.371 2.2-1.957a41.419 41.419 0 0 0 4.797-4.653A7.572 7.572 0 0 0 19.312 6a6.366 6.366 0 0 0-1.532-4.261z"/>
</svg>
