<!-- Embeded svg sprite reference -->
<svg display="none" xmlns="http://www.w3.org/2000/svg">
    <symbol id="facebook" viewBox="0 0 60.734 60.733" xmlns="http://www.w3.org/2000/svg">
        <path d="M57.378.001H3.352A3.352 3.352 0 0 0 0 3.353v54.026a3.353 3.353 0 0 0 3.352 3.354h29.086V37.214h-7.914v-9.167h7.914v-6.76c0-7.843 4.789-12.116 11.787-12.116 3.355 0 6.232.251 7.071.36v8.198l-4.854.002c-3.805 0-4.539 1.809-4.539 4.462v5.851h9.078l-1.187 9.166h-7.892v23.52h15.475a3.355 3.355 0 0 0 3.355-3.351V3.351a3.352 3.352 0 0 0-3.354-3.35z"/>
    </symbol>

    <symbol id="linkedin" viewBox="0 0 512 512" xmlns="http://www.w3.org/2000/svg">
        <path d="M475.074 0H36.926C16.53 0 0 16.531 0 36.926v438.148C0 495.47 16.531 512 36.926 512h438.148C495.47 512 512 495.469 512 475.074V36.926C512 16.53 495.469 0 475.074 0zM181.61 387h-62.347V199.426h62.347zm-31.172-213.188h-.406c-20.922 0-34.453-14.402-34.453-32.402 0-18.406 13.945-32.41 35.274-32.41 21.328 0 34.453 14.004 34.859 32.41 0 18-13.531 32.403-35.274 32.403zM406.423 387h-62.34V286.652c0-25.218-9.027-42.418-31.586-42.418-17.223 0-27.48 11.602-31.988 22.801-1.649 4.008-2.051 9.61-2.051 15.215V387h-62.344s.817-169.977 0-187.574h62.344v26.558c8.285-12.78 23.11-30.96 56.188-30.96 41.02 0 71.777 26.808 71.777 84.421zm0 0"/>
    </symbol>

    <symbol id="instagram" viewBox="0 0 512 512" xmlns="http://www.w3.org/2000/svg">
        <path d="M256 152c-57.9 0-105 47.1-105 105s47.1 105 105 105 105-47.1 105-105-47.1-105-105-105zm0 0c-57.9 0-105 47.1-105 105s47.1 105 105 105 105-47.1 105-105-47.1-105-105-105zM437 0H75C33.6 0 0 33.6 0 75v362c0 41.4 33.6 75 75 75h362c41.4 0 75-33.6 75-75V75c0-41.4-33.6-75-75-75zM256 392c-74.399 0-135-60.601-135-135 0-74.401 60.601-135 135-135s135 60.599 135 135c0 74.399-60.601 135-135 135zm165-270c-16.5 0-30-13.5-30-30s13.5-30 30-30 30 13.5 30 30-13.5 30-30 30zm-165 30c-57.9 0-105 47.1-105 105s47.1 105 105 105 105-47.1 105-105-47.1-105-105-105zm0 0c-57.9 0-105 47.1-105 105s47.1 105 105 105 105-47.1 105-105-47.1-105-105-105zm0 0c-57.9 0-105 47.1-105 105s47.1 105 105 105 105-47.1 105-105-47.1-105-105-105z"/>
    </symbol>

    <symbol id="heart" viewBox="0 0 391.837 391.837" xmlns="http://www.w3.org/2000/svg">
        <path d="M285.257 35.528c58.743.286 106.294 47.836 106.58 106.58 0 107.624-195.918 214.204-195.918 214.204S0 248.165 0 142.108c0-58.862 47.717-106.58 106.58-106.58a105.534 105.534 0 0 1 89.339 48.065 106.578 106.578 0 0 1 89.338-48.065z" fill="#ff00ce"/>
    </symbol>

    <symbol id="search" viewBox="0 0 512.005 512.005" xmlns="http://www.w3.org/2000/svg">
        <path d="M505.749 475.587l-145.6-145.6c28.203-34.837 45.184-79.104 45.184-127.317C405.333 90.926 314.41.003 202.666.003S0 90.925 0 202.669s90.923 202.667 202.667 202.667c48.213 0 92.48-16.981 127.317-45.184l145.6 145.6c4.16 4.16 9.621 6.251 15.083 6.251s10.923-2.091 15.083-6.251c8.341-8.341 8.341-21.824-.001-30.165zM202.667 362.669c-88.235 0-160-71.765-160-160s71.765-160 160-160 160 71.765 160 160-71.766 160-160 160z"/>
    </symbol>

    <symbol id="menu" viewBox="0 0 21.168 15.664" xmlns="http://www.w3.org/2000/svg">
        <rect width="21.168" height="2.117" class="acls-1" rx="1.058" fill="#d136ff"/>
        <rect width="17.781" height="2.117" class="acls-1" rx="1.058" transform="translate(0 6.774)" fill="#d136ff"/>
        <rect width="21.168" height="2.117" class="acls-1" rx="1.058" transform="translate(0 13.547)" fill="#d136ff"/>
    </symbol>

     <symbol id="heart-contact" viewBox="0 0 19.312 17.767" xmlns="http://www.w3.org/2000/svg">
        <path fill="#2a2929" d="M17.78 1.739A5.116 5.116 0 0 0 13.917 0a4.757 4.757 0 0 0-3.035 1.083 6.324 6.324 0 0 0-1.226 1.325 6.331 6.331 0 0 0-1.227-1.325A4.756 4.756 0 0 0 5.395 0a5.116 5.116 0 0 0-3.863 1.739A6.366 6.366 0 0 0 0 6a7.572 7.572 0 0 0 1.915 4.865 41.445 41.445 0 0 0 4.795 4.656c.664.585 1.417 1.249 2.2 1.956a1.106 1.106 0 0 0 1.493 0 228.14 228.14 0 0 1 2.2-1.957 41.419 41.419 0 0 0 4.797-4.653A7.572 7.572 0 0 0 19.312 6a6.366 6.366 0 0 0-1.532-4.261z"/>
    </symbol>

    <symbol id="watch" viewBox="0 0 21.322 21.294" xmlns="http://www.w3.org/2000/svg">
        <path fill="#2a2929" stroke="#2a2929" stroke-miterlimit="10" stroke-width=".6" d="M20.415 10.047a.607.607 0 0 0-.607.606 9.137 9.137 0 1 1-4.778-8.022l-.759.758a.606.606 0 0 0 .429 1.034h2.9a.607.607 0 0 0 .607-.606V.918A.607.607 0 0 0 17.176.49l-1.255 1.252a10.38 10.38 0 0 0-12.586 1.6 10.341 10.341 0 0 0 7.326 17.653 10.351 10.351 0 0 0 10.361-10.342.606.606 0 0 0-.607-.606"/>
        <path fill="#2a2929" stroke="#2a2929" stroke-miterlimit="10" stroke-width=".2" d="M9.729 7.386a.6.6 0 0 0-.6.6v3.87a.6.6 0 0 0 .6.6h3.881a.6.6 0 1 0 0-1.2h-3.274v-3.27a.6.6 0 0 0-.607-.6"/>
    </symbol>
</svg>

