<svg xmlns="http://www.w3.org/2000/svg" width="21.322" height="21.294" viewBox="0 0 21.322 21.294">
    <g>
        <g>
            <path fill="#2a2929" stroke="#2a2929" stroke-miterlimit="10" stroke-width="0.6px" d="M20.115 9.735a.607.607 0 0 0-.607.606 9.137 9.137 0 1 1-4.778-8.022l-.759.758a.606.606 0 0 0 .429 1.034h2.9a.607.607 0 0 0 .607-.606V.606a.607.607 0 0 0-1.031-.428L15.621 1.43a10.38 10.38 0 0 0-12.586 1.6 10.341 10.341 0 0 0 7.326 17.653 10.351 10.351 0 0 0 10.361-10.342.606.606 0 0 0-.607-.606" transform="translate(.3 .312)"/>
        </g>
        <path fill="#2a2929" stroke="#2a2929" stroke-miterlimit="10" stroke-width="0.2px" d="M.6 0a.6.6 0 0 0-.6.6v3.87a.6.6 0 0 0 .6.6h3.881a.6.6 0 1 0 0-1.2H1.207V.6A.6.6 0 0 0 .6 0" transform="translate(.3 .312) translate(8.829 7.074)"/>
    </g>
</svg>
